<?xml version="1.0" encoding="utf-8"?>
<!-- Generator: Adobe Illustrator 26.2.1, SVG Export Plug-In . SVG Version: 6.00 Build 0)  -->
<svg version="1.1"
	 id="svg2" xmlns:cc="http://creativecommons.org/ns#" xmlns:dc="http://purl.org/dc/elements/1.1/" xmlns:rdf="http://www.w3.org/1999/02/22-rdf-syntax-ns#" xmlns:svg="http://www.w3.org/2000/svg"
	 xmlns="http://www.w3.org/2000/svg" xmlns:xlink="http://www.w3.org/1999/xlink" x="0px" y="0px" width="539.7px" height="215.7px"
	 viewBox="0 0 539.7 215.7" style="enable-background:new 0 0 539.7 215.7;" xml:space="preserve">
<style type="text/css">
	.st0{fill-rule:evenodd;clip-rule:evenodd;fill:#FFFFFF;}
</style>
<g id="g10_00000045608419650247273990000013420552939186762159_" transform="matrix(1.3333333,0,0,-1.3333333,0,369.33333)">
	<g id="g12_00000170989326614505358980000001813842030437810837_" transform="scale(0.1)">
		<path id="path14_00000101090439613528893640000013793479433103161250_" class="st0" d="M1885.4,2168.6l307.4,556.7h288.6
			l-319.3-556.7l343.2-580.6h-288.6L1885.4,2168.6"/>
		<path id="path16_00000078754450435797194120000014043500936884355250_" class="st0" d="M3400.3,2168.6l307.4,556.7h288.6
			L3677,2168.6l343.2-580.6h-288.6L3400.3,2168.6"/>
		<path id="path18_00000127039522189714320170000012631600946715663793_" class="st0" d="M1242.9,2172.1
			c0-93.3,75.6-168.8,168.9-168.8c93.2,0,168.8,75.6,168.8,168.8s-75.6,168.8-168.8,168.8
			C1318.5,2340.9,1242.9,2265.3,1242.9,2172.1"/>
		<path id="path20_00000159466951140275634960000011404580116691277980_" class="st0" d="M2803.7,2566.4
			c0-93.2,75.6-168.8,168.9-168.8c93.3,0,168.8,75.6,168.8,168.8c0,93.3-75.6,168.9-168.8,168.9
			C2879.3,2735.3,2803.7,2659.7,2803.7,2566.4"/>
		<path id="path22_00000143606779514442004700000003610164245654891708_" class="st0" d="M872.9,2002v723.3H622.6v-725.4h0.1l0,0
			c0-22.8-4.4-44.9-13.2-65.6c-12.6-29.7-34.3-56.1-61.2-74.3c-28.2-19-60-28.7-94.2-28.8c-22.9,0.1-44.9,4.5-65.6,13.2
			c-29.8,12.5-56.1,34.3-74.3,61.2c-19,28.2-28.7,59.9-28.7,94.2l0,0h0.1v725.4H35.3V2002c0,0-1.2-87.1,32-165.6
			c31.8-75,84.3-138.9,152-184.6c69.4-47,150.6-71.8,234.8-71.8c56.6,0,111.6,11.1,163.5,33.1c75,31.8,138.9,84.3,184.6,152
			C878.3,1877.9,872.9,2002,872.9,2002"/>
		<path id="path24_00000036954704796653655480000000909891004056030385_" class="st0" d="M58.7,1417.9v-93.5
			c0-6.9,0.4-12.3,1.1-16.2c0.7-3.9,2-7.4,3.8-10.6c2.5-4.3,6-7.9,10.5-10.7c5.6-3.5,11.8-5.2,18.7-5.2c6.1,0,11.8,1.4,17.1,4.3
			c5.2,2.9,9.2,6.7,12,11.6c1.8,3.2,3.1,6.7,3.8,10.6c0.7,3.9,1.1,9.3,1.1,16.2v93.5h23.4V1318c0-14.5-3.9-26.7-11.8-36.5
			c-5.4-6.9-12.1-12.2-20.2-16c-8-3.9-16.5-5.8-25.4-5.8c-12.6,0-24,3.7-34.4,11c-15.4,11-23.1,26.8-23.1,47.3v99.9L58.7,1417.9"/>
		<path id="path26_00000001621592199650124990000015000216372189436089_" class="st0" d="M178.4,1360.7H201v-8.8
			c4.2,4.4,7.9,7.4,11.1,9c3.2,1.6,7.1,2.5,11.7,2.5c5.9,0,12.1-2,18.6-5.9l-10.5-20.7c-4.3,3.1-8.5,4.7-12.4,4.7
			c-6.4,0-11-2.3-14-6.8c-3-4.6-4.5-11.7-4.5-21.3v-50.7h-22.6L178.4,1360.7"/>
		<path id="path28_00000124139001134369849420000014648846254526081460_" class="st0" d="M285.6,1283.9h58.2v-21.3H240.7l63.5,76.9
			h-49.9v21.1H349L285.6,1283.9"/>
		<path id="path30_00000170241021306322575790000013240032570575185335_" class="st0" d="M437.4,1360.7H460v-98.1
			c-11.3-7.6-16.9-14.2-16.9-19.7c0-4.8,3-7.2,8.9-7.2c3.8,0,8,0.6,12.8,1.7l-2.1-14.6c-4.8-2.8-9.8-4.2-15-4.2
			c-6.8,0-12.4,2-16.8,6c-3.7,3.5-5.6,7.7-5.6,12.5c0,5,1.3,9.4,4,13.2c2.7,3.8,7.3,7.8,13.9,12.2h-5.7v10.4
			c-5.1-4.9-10-8.4-14.4-10.4c-4.5-1.9-9.7-2.9-15.6-2.9c-14.3,0-26,5.5-35.1,16.5c-7.8,9.4-11.7,21.3-11.7,35.7
			c0,15.9,4.9,28.7,14.7,38.3c8.9,8.7,19.4,13.1,31.5,13.1c6.2,0,11.7-1.1,16.3-3.2c4.7-2.1,9.5-5.8,14.4-10.9v11.6H437.4z
			 M410.9,1343c-8.4,0-15-3.2-20-9.6c-4.9-6.1-7.3-13.2-7.3-21.5c0-10.2,3.1-18.5,9.2-24.7c4.8-4.8,10.7-7.2,17.9-7.2
			c9.1,0,16.3,3.4,21.6,10.1c4.3,5.5,6.5,12.6,6.5,21.3c0,10-2.9,17.9-8.6,23.7C425,1340.2,418.6,1342.8,410.9,1343"/>
		<path id="path32_00000107586567891934835800000001264497031764568449_" class="st0" d="M556.1,1432.6h22.6v-169.9h-22.6v10.4
			c-9-8.9-19.1-13.3-30.4-13.3c-14.1,0-25.7,5.5-34.8,16.5c-7.8,9.4-11.7,21.3-11.7,35.7c0,15.9,4.9,28.7,14.7,38.3
			c8.9,8.7,19.4,13.1,31.5,13.1c11.4,0,21.6-4.6,30.7-14V1432.6z M529.6,1343c-8.4,0-15-3.2-20-9.6c-4.9-6.1-7.3-13.2-7.3-21.4
			c0-10.3,3.1-18.6,9.2-24.8c4.8-4.8,10.7-7.2,17.9-7.2c9.1,0,16.3,3.4,21.6,10.1c4.3,5.5,6.5,12.6,6.5,21.3c0,10-2.9,17.9-8.6,23.7
			C543.8,1340.2,537.3,1342.8,529.6,1343"/>
		<path id="path34_00000154405406027921424260000012503682851670313663_" class="st0" d="M743.7,1420.9c23.5,0,43.3-8.8,59.4-26.4
			c14.2-15.4,21.4-33.6,21.4-54.4c0-14.3-3.6-27.6-10.8-40c-7.1-12.3-16.9-22-29.2-29.2c-12.7-7.4-26.7-11.1-41.9-11.1
			c-13.4,0-26.3,3.3-38.6,10c-14.8,8-25.8,19-33.1,33c-5.9,11.3-8.8,24-8.8,38.2c0,22.1,8.3,41.1,24.8,57
			C702.4,1412.8,721.3,1420.5,743.7,1420.9z M743.4,1398.8c-18.2,0-32.9-6.8-44.1-20.5c-9-11-13.5-23.5-13.5-37.7
			c0-17.2,5.8-31.3,17.3-42.4c11.5-11,24.7-16.5,39.7-16.5c10.8,0,20.7,2.7,29.9,8.2c9.4,5.6,16.5,13.1,21.4,22.4
			c4.5,8.5,6.7,17.8,6.7,27.9c0,16.3-5.5,30.2-16.5,41.7C773.7,1392.9,760.1,1398.5,743.4,1398.8"/>
		<path id="path36_00000017494463921623924650000003525880767621348268_" class="st0" d="M921.1,1356.5v-30.1
			c-5.2,6.3-9.9,10.6-13.9,13s-8.8,3.6-14.3,3.6c-9,0-16.3-3.3-21.9-9.9c-5.1-5.8-7.6-13-7.6-21.5c0-9,2.8-16.5,8.3-22.6
			c5.1-5.9,12.1-8.9,20.9-8.9c5.5,0,10.3,1.2,14.3,3.5c4,2.4,8.7,6.8,14.2,13.3V1267c-9.1-4.9-18.3-7.3-27.7-7.3
			c-16.4,0-29.6,5.5-39.7,16.6c-9.1,10.1-13.7,21.7-13.7,34.9c0,9,2.3,17.6,6.9,25.7c4.5,8,10.5,14.2,18,18.8
			c8.4,5.1,18,7.6,28.7,7.6C903.4,1363.3,912.5,1361,921.1,1356.5"/>
		<path id="path38_00000106850816866332001410000012028673536449398665_" class="st0" d="M943.1,1432.6h22.6v-80.1
			c8,7.2,16.8,10.8,26.6,10.8c5.9,0,11.4-1.2,16.5-3.6s9.1-5.6,12-9.7c2.4-3.3,4.1-6.9,5.1-11c0.9-4.1,1.4-9.5,1.4-16.3v-60.1h-22.6
			v57.9c0,6.7-1,11.9-3,15.3c-2.7,4.7-7.5,7.1-14.7,7.1c-4.3,0-8.2-0.9-11.5-2.7c-3.3-1.8-5.6-4.3-6.9-7.5c-2-4.6-3-12.2-3-22.7
			v-47.3H943v169.9"/>
		<path id="path40_00000134210171486765823600000008348389098195365540_" class="st0" d="M1056,1360.7h22.6v-8.8
			c4.2,4.4,7.9,7.4,11.1,9s7.1,2.5,11.7,2.5c5.9,0,12.1-2,18.7-5.9l-10.5-20.7c-4.3,3.1-8.4,4.7-12.4,4.7c-6.4,0-11.1-2.3-14.1-6.8
			c-3-4.6-4.5-11.7-4.5-21.3v-50.7H1056V1360.7"/>
		<path id="path42_00000041256978309143281580000011179991247343492541_" class="st0" d="M1178.3,1363.3c16.2,0,29.4-5.9,39.6-17.6
			c8.5-9.8,12.7-21.2,12.7-34.1c0-15.2-5.5-28-16.6-38.2c-9.7-9.1-21.8-13.6-36.2-13.6c-15.9,0-29,5.9-39.1,17.7
			c-8.4,9.8-12.6,21.4-12.6,34.9c0,14.5,5.5,26.9,16.6,37.3C1152,1358.6,1163.9,1363.1,1178.3,1363.3z M1178.3,1343
			c-9.9,0-17.5-3.6-22.9-10.7c-4.2-5.6-6.3-12.4-6.3-20.4c0-10.3,2.9-18.3,8.6-24c5.3-5.2,12.1-7.9,20.5-7.9
			c9.9,0,17.5,3.5,22.9,10.5c4.2,5.5,6.3,12.4,6.3,20.9c0,10-2.9,17.9-8.6,23.5C1193.8,1340.2,1186.9,1342.8,1178.3,1343"/>
		<path id="path44_00000096043257720515895090000003308522550753006517_" class="st0" d="M1249.8,1360.7h22.6v-9.1
			c4.4,4.4,8.6,7.4,12.5,9.1s8.7,2.5,14.3,2.5c6.1,0,11.8-1.2,16.9-3.6s9.1-5.6,11.9-9.7c4.1-6,6.1-15.1,6.1-27.3v-60.1h-22.6v54.8
			c0,8.9-1,15.1-3,18.4c-2.9,4.7-8,7.1-15.3,7.1c-7.7,0-13.1-2.5-16.2-7.5s-4.7-13.5-4.7-25.5v-47.3h-22.6L1249.8,1360.7"/>
		<path id="path46_00000017475887322943066450000007020118016035619001_" class="st0" d="M1390.3,1280.9l-44,79.8h26.3l29.9-56.4
			l28,56.4h25.6l-78.1-151.5h-25.8L1390.3,1280.9"/>
		<path id="path48_00000025430135724538819380000011406817149957066118_" class="st0" d="M1557.4,1355.9l60.4,62h31.3l-70-70.3
			l70.5-85h-31.4l-55.8,69.1l-4.9-4.8v-64.3h-23.4v155.3h23.4L1557.4,1355.9"/>
		<path id="path50_00000029012158330722771030000010644268230037852343_" class="st0" d="M1706.4,1363.3c16.2,0,29.4-5.9,39.6-17.6
			c8.5-9.8,12.7-21.2,12.7-34.1c0-15.2-5.5-28-16.6-38.2c-9.7-9.1-21.8-13.6-36.2-13.6c-15.9,0-29,5.9-39.1,17.7
			c-8.4,9.8-12.6,21.4-12.6,34.9c0,14.5,5.5,26.9,16.6,37.3C1680.1,1358.6,1692,1363.1,1706.4,1363.3L1706.4,1363.3z M1706.4,1343
			c-9.8,0-17.5-3.6-22.9-10.7c-4.2-5.6-6.3-12.4-6.3-20.4c0-10.3,2.9-18.3,8.6-24c5.3-5.2,12.2-7.9,20.5-7.9
			c9.8,0,17.5,3.5,22.9,10.5c4.2,5.5,6.4,12.4,6.4,20.9c0,10-2.9,17.9-8.7,23.5C1721.9,1340.2,1715,1342.8,1706.4,1343"/>
		<path id="path52_00000021834054996486200100000009721864674549607048_" class="st0" d="M1782.6,1360.7h22.6v-9.1
			c4.4,4.4,8.5,7.4,12.5,9.1s8.7,2.5,14.3,2.5c6.1,0,11.8-1.2,16.9-3.6s9.1-5.6,11.9-9.7c4.1-6,6.1-15.1,6.1-27.3v-60.1h-22.6v54.8
			c0,8.9-1,15.1-3,18.4c-2.9,4.7-8,7.1-15.4,7.1c-7.6,0-13-2.5-16.1-7.5s-4.7-13.5-4.7-25.5v-47.3h-22.6L1782.6,1360.7"/>
		<path id="path54_00000125605379071170008840000008845026751111774618_" class="st0" d="M1918.2,1432.6V1329l31.9,31.7h30.4
			l-42.5-41.2l45.6-56.9h-29.4l-32.4,41.3l-3.5-3.5v-37.8h-22.6v169.9L1918.2,1432.6"/>
		<path id="path56_00000020393864323096271850000017189956207849509049_" class="st0" d="M2021.2,1360.7v-56.3
			c0-7,0.9-12.2,2.8-15.6c3.2-5.9,8.7-8.8,16.4-8.8c6.6,0,11.4,2,14.6,5.9c3.1,3.9,4.7,10.1,4.7,18.4v56.3h22.6v-56.8
			c0-7.7-0.8-14-2.4-18.7c-1.5-4.7-4.2-9.1-8-13.1c-7.9-8.3-18.4-12.4-31.5-12.4c-13.1,0-23.6,4.1-31.5,12.4
			c-3.9,4-6.6,8.4-8.1,13.1s-2.3,11-2.3,18.7v56.8L2021.2,1360.7"/>
		<path id="path58_00000182527335334136149520000007773832239357384871_" class="st0" d="M2110.8,1360.7h22.7v-8.8
			c4.2,4.4,7.9,7.4,11.1,9c3.2,1.6,7.1,2.5,11.6,2.5c5.9,0,12.1-2,18.7-5.9l-10.5-20.7c-4.3,3.1-8.4,4.7-12.4,4.7
			c-6.4,0-11.1-2.3-14-6.8c-3-4.6-4.5-11.7-4.5-21.3v-50.7h-22.7L2110.8,1360.7"/>
		<path id="path60_00000039127839399199579860000008891864294771271342_" class="st0" d="M2275.8,1306.3h-70.2
			c0.4-4.8,1.5-9,3.4-12.7c4.6-9,11.9-13.5,22.2-13.5c5.6,0,10.3,1.4,14.1,4.1s7.9,7.7,12.3,14.9l19.1-10.7
			c-4.5-7.5-8.8-13.1-13.1-16.8c-9.2-7.9-20.2-11.8-33.2-11.8c-15.9,0-28.4,5.7-37.8,17c-7.1,8.7-10.7,20.3-10.7,34.8
			c0,8,1.3,15.3,3.8,22.2c2.5,6.8,6,12.4,10.5,16.8c8.6,8.5,19.6,12.7,33,12.7c11.2,0,21-3.1,29.5-9.3c11.5-8.6,17.3-22.7,17.3-42.3
			C2275.9,1310.6,2275.8,1308.8,2275.8,1306.3z M2252.6,1324.8c-1.1,4.2-2.6,7.4-4.5,9.9c-4.4,5.5-10.5,8.3-18.3,8.3
			c-5.5,0-10.3-1.7-14.4-5c-4.1-3.3-6.8-7.7-8.2-13.2L2252.6,1324.8"/>
		<path id="path62_00000060728300919258478690000010679270186101636999_" class="st0" d="M2300.6,1360.7h22.6v-9.1
			c4.4,4.4,8.5,7.4,12.5,9.1s8.7,2.5,14.4,2.5c6.1,0,11.7-1.2,16.9-3.6c5.1-2.4,9.1-5.6,11.9-9.7c4.1-6,6.1-15.1,6.1-27.3v-60.1
			h-22.6v54.8c0,8.9-1,15.1-3,18.4c-2.9,4.7-8,7.1-15.4,7.1c-7.7,0-13-2.5-16.1-7.5s-4.7-13.5-4.7-25.5v-47.3h-22.6L2300.6,1360.7"
			/>
		<path id="path64_00000169526060034809606030000016715532958954091909_" class="st0" d="M2489.7,1356.5v-30.1
			c-5.2,6.3-9.9,10.6-13.9,13s-8.8,3.6-14.3,3.6c-9,0-16.4-3.3-21.9-9.9c-5.1-5.8-7.6-13-7.6-21.5c0-9,2.7-16.5,8.3-22.6
			c5.1-5.9,12.1-8.9,20.9-8.9c5.5,0,10.3,1.2,14.3,3.5c4,2.4,8.8,6.8,14.2,13.3V1267c-9.1-4.9-18.3-7.3-27.6-7.3
			c-16.4,0-29.6,5.5-39.7,16.6c-9.1,10.1-13.6,21.7-13.6,34.9c0,9,2.3,17.6,6.9,25.7c4.5,8,10.5,14.2,18,18.8
			c8.4,5.1,18,7.6,28.7,7.6C2472,1363.3,2481.1,1361,2489.7,1356.5"/>
		<path id="path66_00000075146098734230337480000011473236397813538999_" class="st0" d="M2527.3,1415.9c4.1,0,7.6-1.4,10.5-4.3
			c2.9-2.8,4.3-6.3,4.3-10.4s-1.4-7.6-4.3-10.5c-2.9-2.9-6.3-4.3-10.4-4.3c-4.1,0-7.6,1.4-10.5,4.4c-2.9,2.9-4.3,6.4-4.3,10.5
			c0,4,1.4,7.4,4.3,10.2C2519.9,1414.4,2523.3,1415.8,2527.3,1415.9z M2538.7,1360.7v-151.5h-22.6v151.5H2538.7"/>
		<path id="path68_00000029767101537809354510000004130422434874228609_" class="st0" d="M2578.6,1415.9c4.1,0,7.6-1.4,10.5-4.3
			c2.9-2.8,4.3-6.3,4.3-10.4s-1.4-7.6-4.3-10.5c-2.9-2.9-6.3-4.3-10.4-4.3c-4.1,0-7.6,1.4-10.5,4.4c-2.9,2.9-4.3,6.4-4.3,10.5
			c0,3.9,1.4,7.3,4.3,10.2C2571.2,1414.3,2574.6,1415.8,2578.6,1415.9L2578.6,1415.9z M2590,1360.7v-98.1h-22.6v98.1H2590"/>
		<path id="path70_00000129918606735836663970000011454367946891283352_" class="st0" d="M2683.5,1415.9c4.1,0,7.6-1.4,10.5-4.3
			c2.9-2.8,4.3-6.3,4.3-10.4s-1.4-7.6-4.3-10.5c-2.9-2.9-6.3-4.3-10.3-4.3c-4.1,0-7.6,1.4-10.5,4.4c-2.9,2.9-4.3,6.4-4.3,10.5
			c0,3.9,1.4,7.3,4.3,10.2C2676,1414.3,2679.5,1415.8,2683.5,1415.9z M2694.9,1360.7v-98.1h-22.6v98.1H2694.9"/>
		<path id="path72_00000025420103490587988520000001441925115581947836_" class="st0" d="M2804.9,1355.9l60.4,62h31.3l-70.1-70.3
			l70.5-85h-31.4l-55.8,69.1l-4.9-4.8v-64.3h-23.5v155.3h23.5V1355.9"/>
		<path id="path74_00000102537733382180518340000017871835997020605361_" class="st0" d="M2953.9,1363.3c16.2,0,29.4-5.9,39.6-17.6
			c8.5-9.8,12.8-21.2,12.8-34.1c0-15.2-5.5-28-16.6-38.2c-9.7-9.1-21.7-13.6-36.2-13.6c-15.9,0-29,5.9-39.1,17.7
			c-8.4,9.8-12.6,21.4-12.6,34.9c0,14.5,5.5,26.9,16.6,37.3C2927.6,1358.6,2939.5,1363.1,2953.9,1363.3z M2953.9,1343
			c-9.9,0-17.5-3.6-22.8-10.7c-4.2-5.6-6.3-12.4-6.3-20.4c0-10.3,2.9-18.3,8.7-24c5.3-5.2,12.1-7.9,20.5-7.9
			c9.9,0,17.5,3.5,22.9,10.5c4.3,5.5,6.4,12.4,6.4,20.9c0,10-2.9,17.9-8.6,23.5C2969.4,1340.2,2962.5,1342.8,2953.9,1343"/>
		<path id="path76_00000095310821673360989680000000649136242070762401_" class="st0" d="M3030.1,1360.7h22.6v-9.1
			c4.4,4.4,8.6,7.4,12.5,9.1s8.7,2.5,14.3,2.5c6.1,0,11.8-1.2,16.9-3.6c5.1-2.4,9.1-5.6,11.9-9.7c4.1-6,6.1-15.1,6.1-27.3v-60.1
			h-22.6v54.8c0,8.9-1,15.1-3,18.4c-2.9,4.7-8,7.1-15.3,7.1c-7.7,0-13.1-2.5-16.2-7.5c-3.1-5-4.7-13.5-4.7-25.5v-47.3H3030
			L3030.1,1360.7"/>
		<path id="path78_00000174589330637364513460000012287766196156423569_" class="st0" d="M3199.9,1344l-18.8-10c-2.9,6-6.5,9-10.9,9
			c-2,0-3.8-0.7-5.3-2.1c-1.5-1.3-2.2-3-2.2-5s0.8-3.8,2.5-5.2c1.7-1.5,5.2-3.4,10.5-5.9c8.4-3.9,14.6-7.2,18.6-10
			c7.8-5.4,11.7-12.7,11.7-22.1c0-9.3-3.5-17.1-10.3-23.5c-6.7-6.3-14.9-9.4-24.6-9.4c-16.4,0-28.1,8.1-34.9,24.2l19.2,8.9
			c2.8-4.9,5.2-8.3,7.5-10.1c2.2-1.8,5.1-2.7,8.6-2.7s6.3,0.9,8.4,2.9c2,1.9,3.1,4.4,3.1,7.6s-1.1,5.6-3.3,7.4
			c-2.2,1.7-8.7,5.3-19.3,10.6c-7.2,3.5-12.2,7.1-14.9,10.7c-2.8,3.7-4.1,8.5-4.1,14.6c0,9.1,3.1,16.3,9.3,21.6
			c6.1,5.2,13.1,7.8,21.2,7.8c6.5,0,11.9-1.5,16.4-4.6C3192.8,1355.6,3196.7,1350.7,3199.9,1344"/>
		<path id="path80_00000005254142624172673870000007828569171040055724_" class="st0" d="M3244.6,1360.7v-56.3c0-7,1-12.2,2.8-15.6
			c3.2-5.9,8.6-8.8,16.4-8.8c6.6,0,11.4,2,14.6,5.9c3.1,3.9,4.7,10.1,4.7,18.4v56.3h22.7v-56.8c0-7.7-0.8-14-2.3-18.7
			c-1.6-4.7-4.2-9.1-8-13.1c-7.9-8.3-18.4-12.4-31.5-12.4s-23.6,4.1-31.5,12.4c-3.9,4-6.6,8.4-8,13.1c-1.5,4.7-2.3,11-2.3,18.7v56.8
			L3244.6,1360.7"/>
		<path id="path82_00000031167144396093347100000018202660623496772496_" class="st0" d="M3329.5,1360.7h22.6v-9.1
			c4.2,4.5,7.9,7.6,11.1,9.3c3.2,1.6,7.4,2.4,12.4,2.4c11,0,19.7-4.8,26.2-14.4c7.1,9.6,16.8,14.4,28.9,14.4
			c8.4,0,15.6-2.4,21.7-7.3c7.6-6.2,11.4-17.1,11.4-32.8v-60.6h-22.6v54.5c0,9.3-1.1,16-3.4,19.9c-2.3,3.9-6.1,5.9-11.6,5.9
			c-6.3,0-10.9-2.4-13.7-7.1s-4.2-12.3-4.2-22.6v-50.6h-22.6v54.2c0,7.2-0.8,13-2.4,17.3c-2.2,5.9-6.5,8.9-12.9,8.9
			c-3.1,0-6-0.8-8.8-2.5s-4.8-3.8-6.1-6.4c-2.2-4.3-3.3-11.2-3.3-20.8v-50.6h-22.6L3329.5,1360.7"/>
		<path id="path84_00000056407902357766282090000004536932439166705556_" class="st0" d="M3581.6,1306.3h-70.2
			c0.3-4.8,1.5-9,3.4-12.7c4.5-9,11.9-13.5,22.2-13.5c5.6,0,10.3,1.4,14,4.1c3.8,2.7,7.9,7.7,12.3,14.9l19.1-10.7
			c-4.5-7.5-8.8-13.1-13.1-16.8c-9.2-7.9-20.3-11.8-33.2-11.8c-15.8,0-28.4,5.7-37.8,17c-7.1,8.7-10.7,20.3-10.7,34.8
			c0,8,1.2,15.3,3.8,22.2c2.5,6.8,6,12.4,10.5,16.8c8.6,8.5,19.6,12.7,33,12.7c11.2,0,21-3.1,29.5-9.3c11.5-8.6,17.3-22.7,17.3-42.3
			C3581.7,1310.6,3581.7,1308.8,3581.6,1306.3L3581.6,1306.3z M3558.4,1324.8c-1.1,4.2-2.6,7.4-4.5,9.9c-4.4,5.5-10.5,8.3-18.3,8.3
			c-5.5,0-10.3-1.7-14.4-5c-4.1-3.3-6.8-7.7-8.3-13.2L3558.4,1324.8"/>
		<path id="path86_00000137837803201470528370000017085010873415568289_" class="st0" d="M3601.7,1360.7h22.6v-9.1
			c4.4,4.4,8.6,7.4,12.5,9.1s8.7,2.5,14.4,2.5c6.1,0,11.8-1.2,16.9-3.6c5.1-2.4,9.1-5.6,11.9-9.7c4.1-6,6.2-15.1,6.2-27.3v-60.1
			h-22.6v54.8c0,8.9-1,15.1-3,18.4c-2.9,4.7-8,7.1-15.4,7.1c-7.7,0-13-2.5-16.1-7.5s-4.7-13.5-4.7-25.5v-47.3h-22.6L3601.7,1360.7"
			/>
		<path id="path88_00000000917089711123194670000014738787277377954954_" class="st0" d="M3738,1339.6v-76.9h-22.6v76.9h-9.7v21.1
			h9.7v35.8h22.6v-35.8h17.5v-21.1H3738"/>
		<path id="path90_00000140736360249416597740000015671842386177617551_" class="st0" d="M3813.9,1363.3c16.2,0,29.4-5.9,39.6-17.6
			c8.5-9.8,12.7-21.2,12.7-34.1c0-15.2-5.5-28-16.6-38.2c-9.7-9.1-21.8-13.6-36.1-13.6c-15.9,0-29,5.9-39.1,17.7
			c-8.4,9.8-12.6,21.4-12.6,34.9c0,14.5,5.5,26.9,16.6,37.3C3787.6,1358.6,3799.4,1363.1,3813.9,1363.3L3813.9,1363.3z M3813.9,1343
			c-9.9,0-17.5-3.6-22.9-10.7c-4.2-5.6-6.2-12.4-6.2-20.4c0-10.3,2.9-18.3,8.6-24c5.3-5.2,12.1-7.9,20.5-7.9
			c9.8,0,17.5,3.5,22.9,10.5c4.2,5.5,6.3,12.4,6.3,20.9c0,10-2.9,17.9-8.6,23.5C3829.4,1340.2,3822.5,1342.8,3813.9,1343z
			 M3847.7,1408.8l-36.6-33.1l-12.4,7.5l27.6,36.7L3847.7,1408.8"/>
		<path id="path92_00000067230334000383749140000002947860605890903202_" class="st0" d="M3892.9,1360.7l25.6-56l27.6,64.8
			l27.9-64.8l25.4,56h25.4l-51.3-105.4l-27.3,63.1l-27.5-63.1l-51.2,105.4H3892.9"/>
	</g>
</g>
</svg>
