<svg width="60" height="60" viewBox="0 0 60 60" fill="none" xmlns="http://www.w3.org/2000/svg">
<g clip-path="url(#clip0_10_5726)">
<path d="M0 24.3243C0 31.4892 5.80816 37.2973 12.973 37.2973H14.5946V24.3243H0Z" fill="#004183"/>
<path d="M14.5946 11.3513H12.973C5.80816 11.3513 0 17.1595 0 24.3243H14.5946V11.3513Z" fill="#004183"/>
<path d="M16.3407 60H29.1888L27.5672 37.2972H14.5942L16.3407 60Z" fill="#DEB308"/>
<path d="M60.0002 24.3244C60.0002 19.5034 56.4931 15.5063 51.8921 14.7343V33.9143C56.4931 33.1424 60.0002 29.145 60.0002 24.3244Z" fill="#004183"/>
<path d="M14.5942 24.3243V37.2973H27.5672H32.4321L47.0267 48.6487V24.3243H14.5942Z" fill="#DEB308"/>
<path d="M47.0267 24.3243V0L32.4321 11.3513H14.5942V24.3243H47.0267Z" fill="#DEB308"/>
<path d="M51.8917 0H47.0269V24.3243V48.6486H51.8917V33.9144V14.7342V0Z" fill="#004183"/>
</g>
<defs>
<clipPath id="clip0_10_5726">
<rect width="60" height="60" fill="#004183"/>
</clipPath>
</defs>
</svg>
