<svg width="60" height="60" viewBox="0 0 60 60" fill="none" xmlns="http://www.w3.org/2000/svg">
<g clip-path="url(#clip0_10_5750)">
<path d="M60.0001 47.0769L43.9121 60L50.7693 47.0769L43.9121 34.1538L60.0001 47.0769Z" fill="#004183"/>
<path d="M24.5313 8.76866C21.2429 6.2605 17.3078 4.87909 13.4505 4.87909H0V20.9671H13.4505C14.1811 20.9671 15.5034 21.9757 15.6967 22.6803L20.8757 41.5731L31.2122 18.4271C30.1924 14.707 27.8198 11.2771 24.5313 8.76866Z" fill="#004183"/>
<path d="M60.0001 12.9231L43.9121 25.8462L50.7693 12.9231L43.9121 0L60.0001 12.9231Z" fill="#DEB308"/>
<path d="M54.7254 47.0769L43.9122 34.1538V39.0329H38.6374C37.9531 39.0329 36.7504 38.148 36.4418 37.4584L29.23 52.3753C32.139 54.1568 35.4145 55.1208 38.6374 55.1208H43.9122V60L54.7254 47.0769Z" fill="#004183"/>
<path d="M36.4416 37.4585L35.0267 42.6185C34.0351 46.2383 32.0135 49.6194 29.2298 52.3754C28.6562 52.026 28.0971 51.6436 27.5564 51.2308C24.2676 48.7227 21.8953 45.2928 20.876 41.5728L31.2118 18.4274L36.3916 37.3201C36.4033 37.3649 36.4205 37.4109 36.4416 37.4585Z" fill="#004183"/>
<path d="M54.7253 12.9231L43.912 0V4.8791H38.6373C34.7802 4.8791 30.8449 6.26051 27.5565 8.76867C24.268 11.277 21.8954 14.7069 20.8757 18.4269L15.6967 37.3196C15.5033 38.0242 14.181 39.0329 13.4504 39.0329H0V55.1209H13.4505C17.3077 55.1209 21.2429 53.7395 24.5313 51.2313C27.8198 48.723 30.1924 45.2931 31.2122 41.5731L36.3912 22.6803C36.5845 21.9758 37.9069 20.9671 38.6374 20.9671H43.9121V25.8462L54.7253 12.9231Z" fill="#DEB308"/>
</g>
<defs>
<clipPath id="clip0_10_5750">
<rect width="60" height="60" fill="white"/>
</clipPath>
</defs>
</svg>
