<svg width="60" height="60" viewBox="0 0 60 60" fill="none" xmlns="http://www.w3.org/2000/svg">
<g clip-path="url(#clip0_10_5748)">
<path d="M37.0154 0C31.1108 0 26.3071 4.80363 26.3071 10.7082V21.0021H29.0849V10.7082C29.0849 6.33551 32.6426 2.77781 37.0154 2.77781C41.3881 2.77781 44.9458 6.33551 44.9458 10.7082V21.0021H47.7236V10.7082C47.7235 4.80363 42.92 0 37.0154 0Z" fill="#004183"/>
<path d="M23.4751 0C17.5706 0 12.7671 4.80363 12.7671 10.7082V21.0021H15.5449V10.7082C15.5449 6.33551 19.1024 2.77781 23.4753 2.77781C27.8483 2.77781 31.4058 6.33551 31.4058 10.7082V21.0021H34.1835V10.7082C34.1835 4.80363 29.3797 0 23.4751 0Z" fill="#DEB308"/>
<path d="M41.1986 18.2236L45.3653 39.1118L41.1986 60H5.75146V18.2236H41.1986Z" fill="#DEB308"/>
<path d="M54.2487 18.2236V60L46.335 56.9348L47.7237 18.2236H54.2487Z" fill="#004183"/>
<path d="M47.7237 18.2236V56.9348L41.1987 60V18.2236H47.7237Z" fill="#004183"/>
<path d="M54.2487 60H41.1987L47.7237 54.1569L54.2487 60Z" fill="#DEB308"/>
</g>
<defs>
<clipPath id="clip0_10_5748">
<rect width="60" height="60" fill="white"/>
</clipPath>
</defs>
</svg>
