<svg width="60" height="60" viewBox="0 0 60 60" fill="none" xmlns="http://www.w3.org/2000/svg">
<g clip-path="url(#clip0_10_5749)">
<path d="M44.3291 0.000244141V31.3424C52.9836 31.3424 60.0002 24.3271 60.0002 15.6713C60.0002 7.01685 52.9836 0.000244141 44.3291 0.000244141Z" fill="#004183"/>
<path d="M44.3292 0.000244141C50.7737 0.000244141 55.9992 7.01685 55.9992 15.6714C55.9992 24.3272 50.7737 31.3425 44.3292 31.3425C41.2003 31.3425 38.2875 30.4262 35.8414 28.8471L27.8726 32.128L31.1535 24.1592C29.5744 21.7131 28.6581 18.8003 28.6581 15.6714C28.6582 7.01685 35.6735 0.000244141 44.3292 0.000244141Z" fill="#004183"/>
<path d="M53.1124 49.2486L50.617 46.7532L44.0156 53.3546L52.1402 55.8209C52.4675 55.5332 52.791 55.2286 53.1125 54.907C54.6684 53.351 54.6684 50.8046 53.1124 49.2486Z" fill="#DEB308"/>
<path d="M50.2832 52.0779C49.9617 52.3995 49.639 52.705 49.3147 52.9955L39.5845 50.8099L37.3989 41.0797L38.3421 40.1366C39.8981 38.5806 42.4444 38.5806 44.0004 40.1366L50.6171 46.7533C51.9891 48.1254 51.8392 50.5218 50.2832 52.0779Z" fill="#DEB308"/>
<path d="M49.3145 52.9955L15.9644 44.9839C27.0266 55.9425 40.7587 65.9023 52.1398 55.8209L49.3145 52.9955Z" fill="#DEB308"/>
<path d="M19.8629 15.9995L17.0338 13.1703L10.0249 20.1792L18.9199 22.601L19.8629 21.6579C21.4192 20.1019 21.4192 17.5555 19.8629 15.9995Z" fill="#DEB308"/>
<path d="M17.0343 18.8288L16.0912 19.7719L6.36287 17.5882L4.1792 7.8599C4.46689 7.53259 4.77146 7.20915 5.09303 6.88759C6.64904 5.33158 9.19541 5.33158 10.7514 6.88759L17.0341 13.1702C18.5903 14.7264 18.5903 17.2727 17.0343 18.8288Z" fill="#DEB308"/>
<path d="M37.3989 41.0797L49.3146 52.9954C38.0317 63.1335 25.7208 54.6232 15.9647 44.984C15.8053 44.8265 15.6469 44.6681 15.4894 44.5106C4.34683 33.3682 -6.04676 19.4041 4.1789 7.85986L18.9202 22.6011L14.9149 26.6063L33.3936 45.0851L37.3989 41.0797Z" fill="#DEB308"/>
</g>
<defs>
<clipPath id="clip0_10_5749">
<rect width="60" height="60" fill="white"/>
</clipPath>
</defs>
</svg>
