<svg width="60" height="60" viewBox="0 0 60 60" fill="none" xmlns="http://www.w3.org/2000/svg">
<g clip-path="url(#clip0_10_5751)">
<path d="M59.9996 17.8022V60H56.0436L49.4502 12.8571L59.9996 17.8022Z" fill="#004183"/>
<path d="M56.044 17.8022V60H0V17.8022L28.022 7.91205L56.044 17.8022Z" fill="#004183"/>
<path d="M59.9994 0V17.8022H56.0434L52.0874 8.90109L56.0434 0H59.9994Z" fill="#DEB308"/>
<path d="M0 0V17.8022H56.044V0H0ZM16.7033 10.8791C15.6109 10.8791 14.7253 9.99352 14.7253 8.90109C14.7253 7.80867 15.6109 6.92309 16.7033 6.92309C17.7957 6.92309 18.6813 7.80867 18.6813 8.90109C18.6813 9.99352 17.7957 10.8791 16.7033 10.8791ZM43.2967 10.8791C42.2043 10.8791 41.3187 9.99352 41.3187 8.90109C41.3187 7.80867 42.2043 6.92309 43.2967 6.92309C44.3891 6.92309 45.2747 7.80867 45.2747 8.90109C45.2747 9.99352 44.3892 10.8791 43.2967 10.8791Z" fill="#DEB308"/>
<path d="M36.9239 23.0769V36.9231H32.9678L29.0117 30L32.9678 23.0769H36.9239Z" fill="white"/>
<path d="M32.9663 23.0769H23.0762V36.9231H32.9663V23.0769Z" fill="white"/>
<path d="M19.1211 23.0769V36.9231H15.1651L11.209 30L15.1651 23.0769H19.1211Z" fill="white"/>
<path d="M15.1646 23.0769H5.27441V36.9231H15.1646V23.0769Z" fill="white"/>
<path d="M54.7255 23.0769V36.9231H50.7695L46.8135 30L50.7695 23.0769H54.7255Z" fill="#DEB308"/>
<path d="M50.7695 23.0769H40.8794V36.9231H50.7695V23.0769Z" fill="#DEB308"/>
<path d="M36.9239 40.8791V54.7253H32.9678L29.0117 47.8022L32.9678 40.8791H36.9239Z" fill="white"/>
<path d="M32.9663 40.8791H23.0762V54.7253H32.9663V40.8791Z" fill="white"/>
<path d="M19.1211 40.8791V54.7253H15.1651L11.209 47.8022L15.1651 40.8791H19.1211Z" fill="white"/>
<path d="M15.1646 40.8791H5.27441V54.7253H15.1646V40.8791Z" fill="white"/>
<path d="M54.7255 40.8791V54.7253H50.7695L46.8135 47.8022L50.7695 40.8791H54.7255Z" fill="#DEB308"/>
<path d="M50.7695 40.8791H40.8794V54.7253H50.7695V40.8791Z" fill="#DEB308"/>
</g>
<defs>
<clipPath id="clip0_10_5751">
<rect width="60" height="60" fill="white"/>
</clipPath>
</defs>
</svg>
