<svg width="60" height="60" viewBox="0 0 60 60" fill="none" xmlns="http://www.w3.org/2000/svg">
<g clip-path="url(#clip0_10_5731)">
<path d="M52.0883 43.022V36.5935C52.0883 34.4176 50.3081 32.6375 48.1323 32.6375H44.1763V60H48.1323C50.3081 60 52.0883 58.2198 52.0883 56.044V49.6155L60.0003 46.3187L52.0883 43.022Z" fill="#004183"/>
<path d="M44.1758 32.6373H3.95602C1.7802 32.6373 0 34.4176 0 36.5935V56.044C0 58.2198 1.7802 60 3.95602 60H44.1758C46.3516 60 48.1318 58.2198 48.1318 56.044V36.5935C48.1318 34.4176 46.3516 32.6373 44.1758 32.6373Z" fill="#004183"/>
<path d="M56.0439 0H52.0879V27.3627H56.0439C58.2197 27.3627 59.9999 25.5825 59.9999 23.4067V3.95602C59.9999 1.7802 58.2197 0 56.0439 0Z" fill="#DEB308"/>
<path d="M56.044 3.95602V23.4066C56.044 25.5824 54.2638 27.3626 52.088 27.3626H11.8682C9.69234 27.3626 7.91215 25.5824 7.91215 23.4066V16.978L0 13.6813L7.91203 10.3846V3.95602C7.91203 1.7802 9.69234 0 11.8682 0H52.088C54.2638 0 56.044 1.7802 56.044 3.95602Z" fill="#DEB308"/>
<path d="M44.1757 47.3077H7.91191C7.36559 47.3077 6.92285 46.8649 6.92285 46.3187C6.92285 45.7724 7.36559 45.3296 7.91191 45.3296H44.1757C44.722 45.3296 45.1648 45.7724 45.1648 46.3187C45.1648 46.8649 44.722 47.3077 44.1757 47.3077Z" fill="white"/>
<path d="M44.1757 42.0329H7.91191C7.36559 42.0329 6.92285 41.5901 6.92285 41.0439C6.92285 40.4977 7.36559 40.0548 7.91191 40.0548H44.1757C44.722 40.0548 45.1648 40.4977 45.1648 41.0439C45.1646 41.5902 44.722 42.0329 44.1757 42.0329Z" fill="white"/>
<path d="M26.0439 52.5824H7.91191C7.36559 52.5824 6.92285 52.1395 6.92285 51.5933C6.92285 51.0471 7.36559 50.6042 7.91191 50.6042H26.0439C26.5902 50.6042 27.0329 51.0471 27.0329 51.5933C27.0329 52.1395 26.5902 52.5824 26.0439 52.5824Z" fill="white"/>
<path d="M52.0884 14.6704H15.8245C15.2782 14.6704 14.8354 14.2275 14.8354 13.6813C14.8354 13.1351 15.2782 12.6923 15.8245 12.6923H52.0884C52.6347 12.6923 53.0775 13.1351 53.0775 13.6813C53.0774 14.2275 52.6347 14.6704 52.0884 14.6704Z" fill="white"/>
<path d="M52.088 9.3956H15.824C15.2777 9.3956 14.835 8.95275 14.835 8.40654C14.835 7.86033 15.2777 7.41748 15.824 7.41748H52.088C52.6344 7.41748 53.0771 7.86033 53.0771 8.40654C53.0771 8.95275 52.6344 9.3956 52.088 9.3956Z" fill="white"/>
<path d="M33.956 19.945H15.824C15.2777 19.945 14.835 19.5022 14.835 18.956C14.835 18.4098 15.2777 17.9669 15.824 17.9669H33.956C34.5023 17.9669 34.945 18.4098 34.945 18.956C34.945 19.5022 34.5023 19.945 33.956 19.945Z" fill="white"/>
</g>
<defs>
<clipPath id="clip0_10_5731">
<rect width="60" height="60" fill="white"/>
</clipPath>
</defs>
</svg>
