<?xml version="1.0" encoding="UTF-8" standalone="no"?>
<svg
   xmlns:dc="http://purl.org/dc/elements/1.1/"
   xmlns:cc="http://creativecommons.org/ns#"
   xmlns:rdf="http://www.w3.org/1999/02/22-rdf-syntax-ns#"
   xmlns:svg="http://www.w3.org/2000/svg"
   xmlns="http://www.w3.org/2000/svg"
   viewBox="0 0 964 369.33334"
   height="369.33334"
   width="964"
   xml:space="preserve"
   id="svg2"
   version="1.1"><metadata
     id="metadata8"><rdf:RDF><cc:Work
         rdf:about=""><dc:format>image/svg+xml</dc:format><dc:type
           rdf:resource="http://purl.org/dc/dcmitype/StillImage" /></cc:Work></rdf:RDF></metadata><defs
     id="defs6" /><g
     transform="matrix(1.3333333,0,0,-1.3333333,0,369.33333)"
     id="g10"><g
       transform="scale(0.1)"
       id="g12"><path
         id="path14"
         style="fill:#071422;fill-opacity:1;fill-rule:evenodd;stroke:none"
         d="m 3356.15,1740.69 556.24,1007.37 h 522.24 L 3856.8,1740.69 4477.92,690.094 h -522.3 L 3356.15,1740.69" /><path
         id="path16"
         style="fill:#071422;fill-opacity:1;fill-rule:evenodd;stroke:none"
         d="m 6097.57,1740.69 556.22,1007.37 h 522.18 L 6598.14,1740.69 7219.27,690.094 H 6697.08 L 6097.57,1740.69" /><path
         id="path18"
         style="fill:#071422;fill-opacity:1;fill-rule:evenodd;stroke:none"
         d="m 2193.48,1747.01 c 0,-168.76 136.79,-305.55 305.56,-305.55 168.74,0 305.51,136.79 305.51,305.55 0,168.7 -136.77,305.52 -305.51,305.52 -168.77,0 -305.56,-136.82 -305.56,-305.52" /><path
         id="path20"
         style="fill:#071422;fill-opacity:1;fill-rule:evenodd;stroke:none"
         d="m 5017.91,2460.63 c 0,-168.74 136.78,-305.52 305.59,-305.52 168.76,0 305.54,136.78 305.54,305.52 0,168.76 -136.78,305.59 -305.54,305.59 -168.81,0 -305.59,-136.83 -305.59,-305.59" /><path
         id="path22"
         style="fill:#071422;fill-opacity:1;fill-rule:evenodd;stroke:none"
         d="m 1523.84,1439.2 v 1308.86 h -452.9 V 1435.43 h 0.19 v -0.06 c 0,-41.24 -8.02,-81.21 -23.83,-118.77 -22.76,-53.83 -62.109,-101.57 -110.82,-134.4 -51.117,-34.41 -108.5,-51.9 -170.464,-52.04 -41.403,0.11 -81.332,8.09 -118.743,23.93 -53.843,22.7 -101.554,62.03 -134.425,110.8 -34.395,51.08 -51.868,108.45 -51.981,170.48 v 0.06 h 0.176 V 2748.06 H 8.125 V 1439.2 c 0,0 -2.17969,-157.67 57.918,-299.63 57.512,-135.77 152.578,-251.3 275.055,-334.117 125.636,-85.012 272.562,-129.937 424.918,-129.894 102.449,0 201.953,20.16 295.814,59.855 135.78,57.465 251.3,152.566 334.11,274.996 137.7,204.24 127.9,428.79 127.9,428.79" /><path
         id="path24"
         style="fill:#071422;fill-opacity:1;fill-rule:evenodd;stroke:none"
         d="M 50.5156,382.254 V 213.063 c 0,-12.485 0.6524,-22.223 1.9336,-29.227 1.3008,-6.969 3.6016,-13.387 6.9102,-19.141 4.5234,-7.8 10.8515,-14.254 18.9297,-19.343 10.1562,-6.325 21.3984,-9.465 33.7619,-9.465 11.125,0 21.418,2.593 30.898,7.832 9.457,5.219 16.703,12.183 21.793,20.976 3.289,5.754 5.59,12.172 6.875,19.141 1.332,7.004 1.965,16.742 1.965,29.227 v 169.191 h 42.41 V 201.543 c 0,-26.215 -7.137,-48.227 -21.418,-66.059 -9.719,-12.504 -21.949,-22.164 -36.617,-29.035 -14.559,-6.9959 -29.844,-10.4724 -45.906,-10.4724 -22.7893,0 -43.4924,6.6404 -62.176,19.9454 C 22.0078,135.836 8.11719,164.363 8.11719,201.543 V 382.254 H 50.5156" /><path
         id="path26"
         style="fill:#071422;fill-opacity:1;fill-rule:evenodd;stroke:none"
         d="m 267.227,278.727 h 40.968 v -15.86 c 7.539,7.988 14.246,13.426 20.063,16.36 5.844,2.972 12.855,4.464 21.117,4.464 10.668,0 21.938,-3.609 33.746,-10.726 L 364.18,235.508 c -7.801,5.633 -15.305,8.422 -22.453,8.422 -11.52,0 -19.981,-4.114 -25.387,-12.325 -5.445,-8.269 -8.145,-21.082 -8.145,-38.507 v -91.825 h -40.968 v 177.454" /><path
         id="path28"
         style="fill:#071422;fill-opacity:1;fill-rule:evenodd;stroke:none"
         d="M 461.227,139.801 H 566.613 V 101.273 H 379.938 l 114.859,139.192 h -90.359 v 38.262 H 575.871 L 461.227,139.801" /><path
         id="path30"
         style="fill:#071422;fill-opacity:1;fill-rule:evenodd;stroke:none"
         d="m 735.785,278.727 h 40.969 V 101.273 c -20.457,-13.8394 -30.66,-25.6871 -30.66,-35.5738 0,-8.6289 5.344,-12.9609 16.047,-12.9609 6.843,0 14.535,1.0469 23.078,3.0937 l -3.742,-26.3554 c -8.641,-5.0625 -17.684,-7.6172 -27.141,-7.6172 -12.356,0 -22.512,3.6367 -30.457,10.9023 -6.742,6.293 -10.098,13.8946 -10.098,22.6406 0,9.0508 2.407,17.0196 7.188,23.875 4.816,6.8555 13.183,14.1836 25.125,21.9957 h -10.309 v 18.754 c -9.305,-8.886 -18.043,-15.148 -26.125,-18.754 -8.094,-3.523 -17.496,-5.2964 -28.199,-5.2964 -25.918,0 -47.121,9.9294 -63.59,29.8364 -14.121,17.027 -21.199,38.55 -21.199,64.632 0,28.809 8.844,51.91 26.543,69.344 16.195,15.774 35.195,23.649 57.004,23.649 11.277,0 21.101,-1.907 29.547,-5.739 8.441,-3.875 17.117,-10.429 26.019,-19.781 z m -47.918,-32.075 c -15.125,0 -27.191,-5.781 -36.242,-17.332 -8.781,-10.976 -13.176,-23.933 -13.176,-38.875 0,-18.543 5.567,-33.437 16.656,-44.687 8.649,-8.641 19.422,-12.973 32.321,-12.973 16.469,0 29.5,6.094 39.113,18.317 7.824,10.027 11.699,22.863 11.699,38.507 0,18.121 -5.175,32.383 -15.617,42.817 -9.191,9.199 -20.773,13.937 -34.754,14.226" /><path
         id="path32"
         style="fill:#071422;fill-opacity:1;fill-rule:evenodd;stroke:none"
         d="m 950.668,408.805 h 40.977 V 101.273 h -40.977 v 18.754 C 934.348,104 916.031,95.9766 895.734,95.9766 c -25.519,0 -46.523,9.9294 -63,29.8364 -14.16,17.027 -21.214,38.55 -21.214,64.632 0,28.809 8.875,51.91 26.582,69.344 16.152,15.774 35.171,23.649 57.007,23.649 20.575,0 39.133,-8.383 55.559,-25.282 z m -47.93,-162.153 c -15.117,0 -27.199,-5.781 -36.242,-17.332 -8.789,-10.976 -13.164,-23.859 -13.164,-38.691 0,-18.664 5.555,-33.621 16.652,-44.871 8.676,-8.641 19.442,-12.973 32.317,-12.973 16.484,0 29.515,6.094 39.109,18.317 7.852,9.886 11.742,22.726 11.742,38.507 0,18.121 -5.211,32.383 -15.64,42.817 -9.203,9.199 -20.809,13.937 -34.774,14.226" /><path
         id="path34"
         style="fill:#071422;fill-opacity:1;fill-rule:evenodd;stroke:none"
         d="m 1290.06,387.645 c 42.55,0 78.35,-15.969 107.46,-47.805 25.77,-27.957 38.69,-60.762 38.69,-98.363 0,-25.793 -6.56,-49.95 -19.58,-72.43 -12.89,-22.25 -30.5,-39.879 -52.87,-52.922 -23.06,-13.445 -48.31,-20.1484 -75.74,-20.1484 -24.28,0 -47.55,6.0274 -69.82,18.0864 -26.73,14.55 -46.68,34.46 -59.85,59.703 -10.59,20.441 -15.86,43.492 -15.86,69.132 0,40.082 14.96,74.454 44.87,103.145 28.02,27.004 62.24,40.871 102.7,41.602 z m -0.39,-39.961 c -32.95,0 -59.58,-12.352 -79.87,-37.055 -16.33,-19.883 -24.49,-42.606 -24.49,-68.152 0,-31.125 10.45,-56.723 31.26,-76.75 20.72,-19.907 44.7,-29.84 71.84,-29.84 19.48,0 37.54,4.941 54.15,14.828 16.99,10.156 29.88,23.672 38.69,40.555 8.1,15.324 12.14,32.128 12.14,50.418 0,29.488 -9.94,54.675 -29.84,75.503 -19.06,19.774 -43.69,29.942 -73.88,30.493" /><path
         id="path36"
         style="fill:#071422;fill-opacity:1;fill-rule:evenodd;stroke:none"
         d="m 1611.17,271.117 v -54.539 c -9.46,11.363 -17.85,19.266 -25.15,23.563 -7.24,4.332 -15.9,6.511 -25.91,6.511 -16.31,0 -29.54,-6.011 -39.72,-17.964 -9.18,-10.512 -13.77,-23.516 -13.77,-38.844 0,-16.211 4.99,-29.867 15.02,-40.969 9.31,-10.727 21.93,-16.09 37.84,-16.09 10.01,0 18.67,2.156 25.96,6.406 7.27,4.274 15.82,12.262 25.73,24.071 v -54.121 c -16.48,-8.778 -33.13,-13.1644 -50.05,-13.1644 -29.61,0 -53.55,10.0154 -71.78,30.0434 -16.49,18.226 -24.71,39.285 -24.71,63.16 0,16.343 4.16,31.847 12.53,46.539 8.11,14.402 18.95,25.742 32.54,33.976 15.22,9.172 32.52,13.743 51.85,13.743 17.56,0 34.09,-4.086 49.62,-12.321" /><path
         id="path38"
         style="fill:#071422;fill-opacity:1;fill-rule:evenodd;stroke:none"
         d="m 1650.88,408.805 h 40.96 V 263.891 c 14.4,13.05 30.48,19.547 48.15,19.547 10.72,0 20.67,-2.137 29.87,-6.469 9.16,-4.297 16.46,-10.164 21.79,-17.567 4.42,-5.937 7.46,-12.566 9.17,-19.964 1.71,-7.426 2.57,-17.235 2.57,-29.458 V 101.273 h -40.94 V 206.09 c 0,12.183 -1.79,21.457 -5.35,27.773 -4.83,8.492 -13.66,12.789 -26.56,12.789 -7.84,0 -14.76,-1.66 -20.81,-4.964 -6.03,-3.297 -10.2,-7.825 -12.55,-13.598 -3.56,-8.363 -5.34,-22.09 -5.34,-41.168 v -85.649 h -40.96 v 307.532" /><path
         id="path40"
         style="fill:#071422;fill-opacity:1;fill-rule:evenodd;stroke:none"
         d="m 1855.25,278.727 h 40.95 v -15.86 c 7.54,7.988 14.26,13.426 20.09,16.36 5.82,2.972 12.85,4.464 21.09,4.464 10.71,0 21.94,-3.609 33.77,-10.726 l -18.96,-37.457 c -7.81,5.633 -15.29,8.422 -22.42,8.422 -11.54,0 -20.01,-4.114 -25.45,-12.325 -5.38,-8.269 -8.12,-21.082 -8.12,-38.507 v -91.825 h -40.95 v 177.454" /><path
         id="path42"
         style="fill:#071422;fill-opacity:1;fill-rule:evenodd;stroke:none"
         d="m 2076.51,283.438 c 29.37,0 53.25,-10.598 71.61,-31.883 15.38,-17.692 23.07,-38.282 23.07,-61.711 0,-27.582 -10.02,-50.653 -30.05,-69.168 -17.59,-16.485 -39.39,-24.6994 -65.45,-24.6994 -28.81,0 -52.4,10.6834 -70.79,32.0894 -15.25,17.692 -22.86,38.758 -22.86,63.204 0,26.179 10.01,48.695 30.07,67.476 16.83,16.098 38.32,24.297 64.4,24.692 z m 0,-36.786 c -17.83,0 -31.64,-6.476 -41.36,-19.379 -7.56,-10.16 -11.33,-22.46 -11.33,-36.828 0,-18.664 5.2,-33.148 15.64,-43.429 9.61,-9.457 21.95,-14.231 37.05,-14.231 17.84,0 31.62,6.305 41.38,18.942 7.67,9.886 11.49,22.496 11.49,37.882 0,18.121 -5.18,32.321 -15.6,42.602 -9.21,9.328 -21.62,14.152 -37.27,14.441" /><path
         id="path44"
         style="fill:#071422;fill-opacity:1;fill-rule:evenodd;stroke:none"
         d="m 2206,278.727 h 40.94 v -16.45 c 7.96,7.926 15.5,13.481 22.64,16.555 7.13,3.059 15.74,4.606 25.94,4.606 11.12,0 21.29,-2.137 30.55,-6.469 9.25,-4.297 16.43,-10.164 21.53,-17.567 7.38,-10.886 11.09,-27.336 11.09,-49.422 V 101.273 h -40.94 v 99.243 c 0,16.195 -1.79,27.293 -5.38,33.347 -5.2,8.492 -14.46,12.789 -27.76,12.789 -13.86,0 -23.63,-4.527 -29.25,-13.515 -5.62,-8.985 -8.42,-24.364 -8.42,-46.215 V 101.273 H 2206 v 177.454" /><path
         id="path46"
         style="fill:#071422;fill-opacity:1;fill-rule:evenodd;stroke:none"
         d="m 2460.15,134.246 -79.64,144.481 h 47.56 l 54.1,-102.086 50.65,102.086 h 46.34 L 2437.91,4.58984 h -46.68 l 68.92,129.65616" /><path
         id="path48"
         style="fill:#071422;fill-opacity:1;fill-rule:evenodd;stroke:none"
         d="m 2762.52,270.09 109.3,112.164 h 56.57 L 2801.64,255.055 2929.22,101.273 h -56.8 l -101.06,124.965 -8.84,-8.648 V 101.273 h -42.4 v 280.981 h 42.4 V 270.09" /><path
         id="path50"
         style="fill:#071422;fill-opacity:1;fill-rule:evenodd;stroke:none"
         d="m 3032.25,283.438 c 29.34,0 53.24,-10.598 71.61,-31.883 15.39,-17.692 23.07,-38.282 23.07,-61.711 0,-27.582 -10.04,-50.653 -30.07,-69.168 -17.55,-16.485 -39.38,-24.6994 -65.44,-24.6994 -28.81,0 -52.4,10.6834 -70.79,32.0894 -15.25,17.692 -22.88,38.758 -22.88,63.204 0,26.179 10.04,48.695 30.05,67.476 16.9,16.098 38.37,24.297 64.45,24.692 z m 0,-36.786 c -17.82,0 -31.63,-6.476 -41.38,-19.379 -7.53,-10.16 -11.34,-22.46 -11.34,-36.828 0,-18.664 5.23,-33.148 15.65,-43.429 9.63,-9.457 21.99,-14.231 37.07,-14.231 17.81,0 31.6,6.305 41.38,18.942 7.65,9.886 11.53,22.496 11.53,37.882 0,18.121 -5.2,32.321 -15.67,42.602 -9.2,9.328 -21.61,14.152 -37.24,14.441" /><path
         id="path52"
         style="fill:#071422;fill-opacity:1;fill-rule:evenodd;stroke:none"
         d="m 3170.14,278.727 h 40.97 v -16.45 c 7.94,7.926 15.46,13.481 22.62,16.555 7.15,3.059 15.78,4.606 25.95,4.606 11.1,0 21.3,-2.137 30.58,-6.469 9.24,-4.297 16.4,-10.164 21.49,-17.567 7.4,-10.886 11.1,-27.336 11.1,-49.422 V 101.273 h -40.96 v 99.243 c 0,16.195 -1.76,27.293 -5.35,33.347 -5.18,8.492 -14.48,12.789 -27.81,12.789 -13.83,0 -23.58,-4.527 -29.19,-13.515 -5.65,-8.985 -8.43,-24.364 -8.43,-46.215 v -85.649 h -40.97 v 177.454" /><path
         id="path54"
         style="fill:#071422;fill-opacity:1;fill-rule:evenodd;stroke:none"
         d="M 3415.46,408.805 V 221.316 l 57.66,57.411 h 54.95 l -76.98,-74.485 82.52,-102.969 h -53.12 l -58.62,74.75 -6.41,-6.371 v -68.379 h -40.94 v 307.532 h 40.94" /><path
         id="path56"
         style="fill:#071422;fill-opacity:1;fill-rule:evenodd;stroke:none"
         d="m 3601.94,278.727 v -101.86 c 0,-12.656 1.71,-22.019 5.13,-28.183 5.77,-10.598 15.68,-15.899 29.65,-15.899 11.94,0 20.71,3.578 26.35,10.731 5.57,7.136 8.45,18.246 8.45,33.351 v 101.86 h 40.96 V 176.023 c 0,-13.992 -1.43,-25.281 -4.27,-33.875 -2.75,-8.546 -7.59,-16.48 -14.46,-23.757 -14.29,-14.938 -33.29,-22.4144 -57.03,-22.4144 -23.74,0 -42.76,7.4764 -57.02,22.4144 -6.97,7.277 -11.88,15.211 -14.6,23.757 -2.74,8.594 -4.11,19.883 -4.11,33.875 v 102.704 h 40.95" /><path
         id="path58"
         style="fill:#071422;fill-opacity:1;fill-rule:evenodd;stroke:none"
         d="m 3764.1,278.727 h 40.99 v -15.86 c 7.51,7.988 14.23,13.426 20.04,16.36 5.82,2.972 12.84,4.464 21.07,4.464 10.73,0 21.98,-3.609 33.79,-10.726 l -18.95,-37.457 c -7.81,5.633 -15.26,8.422 -22.43,8.422 -11.54,0 -20.02,-4.114 -25.4,-12.325 -5.45,-8.269 -8.12,-21.082 -8.12,-38.507 v -91.825 h -40.99 v 177.454" /><path
         id="path60"
         style="fill:#071422;fill-opacity:1;fill-rule:evenodd;stroke:none"
         d="m 4062.55,180.348 h -126.97 c 0.66,-8.621 2.72,-16.321 6.14,-23.051 8.27,-16.32 21.62,-24.512 40.15,-24.512 10.17,0 18.61,2.473 25.43,7.332 6.81,4.875 14.23,13.895 22.31,27.031 l 34.58,-19.316 c -8.06,-13.586 -15.93,-23.719 -23.68,-30.469 -16.63,-14.277 -36.63,-21.3864 -60.06,-21.3864 -28.7,0 -51.47,10.2654 -68.34,30.8434 -12.92,15.793 -19.4,36.785 -19.4,63.024 0,14.398 2.27,27.746 6.84,40.129 4.54,12.3 10.84,22.461 18.95,30.441 15.59,15.359 35.48,23.024 59.64,23.024 20.35,0 38.09,-5.61 53.35,-16.864 20.82,-15.617 31.25,-41.144 31.25,-76.57 0,-1.906 -0.08,-5.129 -0.19,-9.656 z m -41.96,33.347 c -2,7.559 -4.66,13.473 -8.23,17.91 -8,10.02 -19.05,15.047 -33.18,15.047 -10,0 -18.72,-2.996 -26.04,-8.992 -7.36,-5.969 -12.3,-13.972 -14.9,-23.965 h 82.35" /><path
         id="path62"
         style="fill:#071422;fill-opacity:1;fill-rule:evenodd;stroke:none"
         d="m 4107.41,278.727 h 40.97 v -16.45 c 7.96,7.926 15.47,13.481 22.62,16.555 7.18,3.059 15.8,4.606 25.97,4.606 11.11,0 21.25,-2.137 30.55,-6.469 9.23,-4.297 16.44,-10.164 21.52,-17.567 7.37,-10.886 11.08,-27.336 11.08,-49.422 V 101.273 h -40.92 v 99.243 c 0,16.195 -1.82,27.293 -5.36,33.347 -5.24,8.492 -14.5,12.789 -27.83,12.789 -13.87,0 -23.55,-4.527 -29.18,-13.515 -5.66,-8.985 -8.45,-24.364 -8.45,-46.215 v -85.649 h -40.97 v 177.454" /><path
         id="path64"
         style="fill:#071422;fill-opacity:1;fill-rule:evenodd;stroke:none"
         d="m 4449.68,271.117 v -54.539 c -9.48,11.363 -17.84,19.266 -25.1,23.563 -7.27,4.332 -15.93,6.511 -25.92,6.511 -16.32,0 -29.61,-6.011 -39.72,-17.964 -9.24,-10.512 -13.8,-23.516 -13.8,-38.844 0,-16.211 4.96,-29.867 15.05,-40.969 9.29,-10.727 21.92,-16.09 37.84,-16.09 10.02,0 18.67,2.156 25.94,6.406 7.27,4.274 15.86,12.262 25.71,24.071 v -54.121 c -16.5,-8.778 -33.09,-13.1644 -50.02,-13.1644 -29.64,0 -53.58,10.0154 -71.84,30.0434 -16.41,18.226 -24.7,39.285 -24.7,63.16 0,16.343 4.2,31.847 12.56,46.539 8.08,14.402 18.98,25.742 32.54,33.976 15.26,9.172 32.53,13.743 51.87,13.743 17.59,0 34.09,-4.086 49.59,-12.321" /><path
         id="path66"
         style="fill:#071422;fill-opacity:1;fill-rule:evenodd;stroke:none"
         d="m 4517.8,378.531 c 7.41,0 13.71,-2.539 18.95,-7.691 5.21,-5.149 7.81,-11.414 7.81,-18.828 0,-7.446 -2.6,-13.731 -7.81,-18.949 -5.24,-5.211 -11.47,-7.805 -18.74,-7.805 -7.39,0 -13.76,2.621 -18.96,7.937 -5.2,5.254 -7.75,11.61 -7.75,19.024 0,7.242 2.55,13.445 7.75,18.5 5.2,5.09 11.45,7.691 18.75,7.812 z m 20.58,-99.804 V 4.58984 h -40.93 V 278.727 h 40.93" /><path
         id="path68"
         style="fill:#071422;fill-opacity:1;fill-rule:evenodd;stroke:none"
         d="m 4610.65,378.531 c 7.38,0 13.68,-2.539 18.92,-7.691 5.2,-5.149 7.78,-11.414 7.78,-18.828 0,-7.446 -2.58,-13.731 -7.78,-18.949 -5.24,-5.211 -11.44,-7.805 -18.74,-7.805 -7.42,0 -13.69,2.621 -18.95,7.937 -5.21,5.254 -7.81,11.61 -7.81,19.024 0,7.117 2.6,13.261 7.81,18.394 5.26,5.149 11.44,7.797 18.77,7.918 z m 20.58,-99.804 V 101.273 h -40.98 v 177.454 h 40.98" /><path
         id="path70"
         style="fill:#071422;fill-opacity:1;fill-rule:evenodd;stroke:none"
         d="m 4800.42,378.531 c 7.44,0 13.71,-2.539 18.92,-7.691 5.2,-5.149 7.81,-11.414 7.81,-18.828 0,-7.446 -2.61,-13.731 -7.81,-18.949 -5.21,-5.211 -11.42,-7.805 -18.71,-7.805 -7.42,0 -13.75,2.621 -18.92,7.937 -5.28,5.254 -7.85,11.61 -7.85,19.024 0,7.117 2.57,13.261 7.85,18.394 5.17,5.149 11.38,7.797 18.71,7.918 z M 4821,278.727 V 101.273 h -40.96 V 278.727 H 4821" /><path
         id="path72"
         style="fill:#071422;fill-opacity:1;fill-rule:evenodd;stroke:none"
         d="m 5020.02,270.09 109.3,112.164 h 56.59 L 5059.14,255.055 5186.75,101.273 h -56.82 l -101.06,124.965 -8.85,-8.648 V 101.273 h -42.44 v 280.981 h 42.44 V 270.09" /><path
         id="path74"
         style="fill:#071422;fill-opacity:1;fill-rule:evenodd;stroke:none"
         d="m 5289.63,283.438 c 29.39,0 53.28,-10.598 71.59,-31.883 15.45,-17.692 23.08,-38.282 23.08,-61.711 0,-27.582 -9.99,-50.653 -30.04,-69.168 -17.56,-16.485 -39.35,-24.6994 -65.42,-24.6994 -28.86,0 -52.4,10.6834 -70.78,32.0894 -15.29,17.692 -22.86,38.758 -22.86,63.204 0,26.179 9.98,48.695 30.03,67.476 16.86,16.098 38.33,24.297 64.4,24.692 z m 0,-36.786 c -17.83,0 -31.64,-6.476 -41.33,-19.379 -7.57,-10.16 -11.38,-22.46 -11.38,-36.828 0,-18.664 5.24,-33.148 15.68,-43.429 9.63,-9.457 21.92,-14.231 37.03,-14.231 17.83,0 31.63,6.305 41.38,18.942 7.7,9.886 11.51,22.496 11.51,37.882 0,18.121 -5.21,32.321 -15.62,42.602 -9.15,9.328 -21.62,14.152 -37.27,14.441" /><path
         id="path76"
         style="fill:#071422;fill-opacity:1;fill-rule:evenodd;stroke:none"
         d="m 5427.59,278.727 h 40.87 v -16.45 c 7.99,7.926 15.56,13.481 22.68,16.555 7.11,3.059 15.77,4.606 25.94,4.606 11.11,0 21.31,-2.137 30.55,-6.469 9.24,-4.297 16.44,-10.164 21.53,-17.567 7.38,-10.886 11.07,-27.336 11.07,-49.422 V 101.273 h -40.92 v 99.243 c 0,16.195 -1.82,27.293 -5.4,33.347 -5.2,8.492 -14.43,12.789 -27.72,12.789 -13.87,0 -23.62,-4.527 -29.25,-13.515 -5.6,-8.985 -8.48,-24.364 -8.48,-46.215 v -85.649 h -40.87 v 177.454" /><path
         id="path78"
         style="fill:#071422;fill-opacity:1;fill-rule:evenodd;stroke:none"
         d="m 5734.79,248.453 -33.93,-18.101 c -5.19,10.851 -11.82,16.3 -19.78,16.3 -3.66,0 -6.87,-1.257 -9.53,-3.754 -2.67,-2.433 -4,-5.449 -4,-9.035 0,-3.707 1.51,-6.871 4.61,-9.465 3.11,-2.632 9.44,-6.16 19.06,-10.703 15.21,-7.004 26.46,-13.031 33.73,-18.136 14.17,-9.711 21.19,-23.067 21.19,-39.914 0,-16.766 -6.26,-30.907 -18.71,-42.594 -12.05,-11.383 -26.88,-17.0744 -44.47,-17.0744 -29.73,0 -50.83,14.6214 -63.18,43.8244 l 34.78,16.054 c 5,-8.914 9.41,-15 13.51,-18.21 4.02,-3.223 9.16,-4.86 15.52,-4.86 6.31,0 11.36,1.715 15.14,5.18 3.7,3.426 5.66,7.976 5.66,13.762 0,5.781 -2.02,10.218 -5.96,13.382 -4,3.164 -15.69,9.559 -34.99,19.149 -13.09,6.312 -22.05,12.785 -26.96,19.445 -4.99,6.684 -7.44,15.461 -7.44,26.453 0,16.496 5.64,29.485 16.87,39.117 10.98,9.454 23.76,14.165 38.29,14.165 11.68,0 21.56,-2.786 29.73,-8.383 8.18,-5.653 15.14,-14.512 20.86,-26.602" /><path
         id="path80"
         style="fill:#071422;fill-opacity:1;fill-rule:evenodd;stroke:none"
         d="m 5815.71,278.727 v -101.86 c 0,-12.656 1.76,-22.019 5.15,-28.183 5.78,-10.598 15.65,-15.899 29.67,-15.899 11.9,0 20.71,3.578 26.34,10.731 5.57,7.136 8.42,18.246 8.42,33.351 v 101.86 h 40.99 V 176.023 c 0,-13.992 -1.46,-25.281 -4.23,-33.875 -2.85,-8.546 -7.67,-16.48 -14.54,-23.757 -14.26,-14.938 -33.24,-22.4144 -56.98,-22.4144 -23.74,0 -42.74,7.4764 -57.03,22.4144 -6.97,7.277 -11.87,15.211 -14.56,23.757 -2.79,8.594 -4.15,19.883 -4.15,33.875 v 102.704 h 40.92" /><path
         id="path82"
         style="fill:#071422;fill-opacity:1;fill-rule:evenodd;stroke:none"
         d="m 5969.48,278.727 h 40.96 v -16.45 c 7.58,8.196 14.23,13.805 20.17,16.766 5.87,2.953 13.41,4.395 22.4,4.395 19.92,0 35.66,-8.692 47.38,-26.098 12.87,17.406 30.33,26.098 52.26,26.098 15.23,0 28.3,-4.36 39.26,-13.141 13.81,-11.262 20.62,-31 20.62,-59.281 V 101.273 h -40.96 v 98.637 c 0,16.863 -2.06,28.867 -6.18,36.031 -4.11,7.11 -11.08,10.711 -20.95,10.711 -11.38,0 -19.68,-4.297 -24.83,-12.789 -5.14,-8.523 -7.68,-22.179 -7.68,-40.968 V 101.273 H 6071 v 98.004 c 0,13.012 -1.48,23.469 -4.37,31.266 -4,10.738 -11.75,16.109 -23.31,16.109 -5.56,0 -10.9,-1.531 -15.86,-4.554 -5.03,-3.012 -8.72,-6.871 -11.05,-11.555 -4.02,-7.797 -5.97,-20.344 -5.97,-37.648 v -91.622 h -40.96 v 177.454" /><path
         id="path84"
         style="fill:#071422;fill-opacity:1;fill-rule:evenodd;stroke:none"
         d="m 6425.57,180.348 h -126.96 c 0.6,-8.621 2.71,-16.321 6.14,-23.051 8.2,-16.32 21.62,-24.512 40.14,-24.512 10.14,0 18.62,2.473 25.41,7.332 6.81,4.875 14.29,13.895 22.34,27.031 l 34.57,-19.316 c -8.12,-13.586 -15.95,-23.719 -23.64,-30.469 -16.62,-14.277 -36.67,-21.3864 -60.13,-21.3864 -28.67,0 -51.43,10.2654 -68.33,30.8434 -12.9,15.793 -19.34,36.785 -19.34,63.024 0,14.398 2.26,27.746 6.8,40.129 4.55,12.3 10.88,22.461 18.93,30.441 15.64,15.359 35.51,23.024 59.66,23.024 20.35,0 38.09,-5.61 53.36,-16.864 20.82,-15.617 31.24,-41.144 31.24,-76.57 0,-1.906 -0.06,-5.129 -0.19,-9.656 z m -41.99,33.347 c -1.93,7.559 -4.69,13.473 -8.23,17.91 -7.96,10.02 -18.98,15.047 -33.15,15.047 -9.99,0 -18.72,-2.996 -26.04,-8.992 -7.33,-5.969 -12.35,-13.972 -14.95,-23.965 h 82.37" /><path
         id="path86"
         style="fill:#071422;fill-opacity:1;fill-rule:evenodd;stroke:none"
         d="m 6462,278.727 h 40.96 v -16.45 c 7.96,7.926 15.5,13.481 22.65,16.555 7.14,3.059 15.8,4.606 25.97,4.606 11.08,0 21.29,-2.137 30.52,-6.469 9.26,-4.297 16.44,-10.164 21.52,-17.567 7.42,-10.886 11.15,-27.336 11.15,-49.422 V 101.273 h -40.97 v 99.243 c 0,16.195 -1.81,27.293 -5.39,33.347 -5.18,8.492 -14.46,12.789 -27.79,12.789 -13.87,0 -23.56,-4.527 -29.18,-13.515 -5.64,-8.985 -8.48,-24.364 -8.48,-46.215 V 101.273 H 6462 v 177.454" /><path
         id="path88"
         style="fill:#071422;fill-opacity:1;fill-rule:evenodd;stroke:none"
         d="M 6708.59,240.465 V 101.273 h -40.96 v 139.192 h -17.47 v 38.262 h 17.47 v 64.836 h 40.96 v -64.836 h 31.66 v -38.262 h -31.66" /><path
         id="path90"
         style="fill:#071422;fill-opacity:1;fill-rule:evenodd;stroke:none"
         d="m 6845.89,283.438 c 29.36,0 53.24,-10.598 71.59,-31.883 15.38,-17.692 23.07,-38.282 23.07,-61.711 0,-27.582 -9.99,-50.653 -30.09,-69.168 -17.56,-16.485 -39.36,-24.6994 -65.39,-24.6994 -28.86,0 -52.44,10.6834 -70.79,32.0894 -15.25,17.692 -22.89,38.758 -22.89,63.204 0,26.179 9.99,48.695 30.1,67.476 16.83,16.098 38.26,24.297 64.4,24.692 z m 0,-36.786 c -17.84,0 -31.64,-6.476 -41.39,-19.379 -7.54,-10.16 -11.3,-22.46 -11.3,-36.828 0,-18.664 5.18,-33.148 15.63,-43.429 9.62,-9.457 21.95,-14.231 37.06,-14.231 17.79,0 31.63,6.305 41.38,18.942 7.63,9.886 11.48,22.496 11.48,37.882 0,18.121 -5.18,32.321 -15.6,42.602 -9.2,9.328 -21.65,14.152 -37.26,14.441 z m 61.15,119.145 -66.15,-59.899 -22.37,13.571 49.98,66.48 38.54,-20.152" /><path
         id="path92"
         style="fill:#071422;fill-opacity:1;fill-rule:evenodd;stroke:none"
         d="m 6988.94,278.727 46.32,-101.27 49.98,117.336 50.44,-117.336 45.89,101.27 h 45.93 L 7134.65,87.9102 7085.24,202.168 7035.41,87.9102 6942.79,278.727 h 46.15" /></g></g></svg>