<?xml version="1.0" encoding="utf-8"?>
<svg version="1.1" id="Warstwa_1" xmlns="http://www.w3.org/2000/svg" xmlns:xlink="http://www.w3.org/1999/xlink" x="0px" y="0px"
	 width="50px" height="50px" viewBox="0 0 50 50" style="enable-background:new 0 0 50 50;" xml:space="preserve">
<circle fill="#FFFFFF" cx="25" cy="25" r="24.8"/>
<path  fill="#01172D" d="M24.7,12.5L18,19.2c-0.3,0.3-0.3,0.8,0,1.2l0.3,0.3c0.3,0.3,0.8,0.3,1.2,0l4.7-4.8v22.7c0,0.4,0.4,0.8,0.8,0.8
	h0.4c0.4,0,0.8-0.4,0.8-0.8V16l4.2,4.6c0.3,0.3,0.8,0.4,1.2,0.1l0.3-0.3c0.3-0.3,0.4-0.8,0.1-1.2l-6.1-6.7
	C25.5,12.2,25,12.1,24.7,12.5z"/>
</svg>
