<?xml version="1.0" encoding="utf-8"?>
<!-- Generator: Adobe Illustrator 26.2.1, SVG Export Plug-In . SVG Version: 6.00 Build 0)  -->
<svg version="1.1" id="Warstwa_1" xmlns="http://www.w3.org/2000/svg" xmlns:xlink="http://www.w3.org/1999/xlink" x="0px" y="0px"
	 width="50px" height="50px" viewBox="0 0 50 50" style="enable-background:new 0 0 50 50;" xml:space="preserve">
<style type="text/css">
	.st0{fill:#01172D;}
</style>
<path class="st0" d="M38.3,25.5l-6.7-6.7c-0.3-0.3-0.8-0.3-1.2,0l-0.3,0.3c-0.3,0.3-0.3,0.8,0,1.2l4.8,4.7H12.2
	c-0.4,0-0.8,0.4-0.8,0.8v0.4c0,0.4,0.4,0.8,0.8,0.8h22.6l-4.6,4.2c-0.3,0.3-0.4,0.8-0.1,1.2l0.3,0.3c0.3,0.3,0.8,0.4,1.2,0.1
	l6.7-6.1C38.6,26.3,38.7,25.8,38.3,25.5z"/>
</svg>
