<?xml version="1.0" encoding="utf-8"?>
<!-- Generator: Adobe Illustrator 26.2.1, SVG Export Plug-In . SVG Version: 6.00 Build 0)  -->
<svg version="1.1" id="Warstwa_1" xmlns="http://www.w3.org/2000/svg" xmlns:xlink="http://www.w3.org/1999/xlink" x="0px" y="0px"
	 width="50px" height="50px" viewBox="0 0 50 50" style="enable-background:new 0 0 50 50;" xml:space="preserve">
<style type="text/css">
	.st0{fill:#01172D;}
</style>
<path class="st0" d="M11.7,26.7l6.7,6.1c0.4,0.3,0.9,0.2,1.2-0.1l0.3-0.3c0.3-0.4,0.2-0.9-0.1-1.2L15.2,27h22.6
	c0.4,0,0.8-0.4,0.8-0.8v-0.4c0-0.4-0.4-0.8-0.8-0.8H15.1l4.8-4.7c0.3-0.4,0.3-0.9,0-1.2l-0.3-0.3c-0.4-0.3-0.9-0.3-1.2,0l-6.7,6.7
	C11.3,25.8,11.4,26.3,11.7,26.7z"/>
</svg>
