<svg width="36" height="36" viewBox="0 0 36 36" fill="none" xmlns="http://www.w3.org/2000/svg">
<g clip-path="url(#clip0_10_4406)">
<path d="M24.7491 12.7495L14.9991 22.4995C14.4023 23.0962 14.0671 23.9055 14.0671 24.7495C14.0671 25.5934 14.4023 26.4027 14.9991 26.9995C15.5958 27.5962 16.4052 27.9314 17.2491 27.9314C18.093 27.9314 18.9023 27.5962 19.4991 26.9995L29.2491 17.2495C30.4425 16.056 31.113 14.4373 31.113 12.7495C31.113 11.0616 30.4425 9.44293 29.2491 8.24946C28.0556 7.05598 26.4369 6.3855 24.7491 6.3855C23.0612 6.3855 21.4425 7.05598 20.2491 8.24946L10.4991 17.9995C8.70886 19.7897 7.70312 22.2177 7.70312 24.7495C7.70313 27.2812 8.70886 29.7093 10.4991 31.4995C12.2893 33.2897 14.7173 34.2954 17.2491 34.2954C19.7808 34.2954 22.2089 33.2897 23.9991 31.4995L33.7491 21.7495" fill="#DEB308"/>
<path d="M24.7491 12.7495L14.9991 22.4995C14.4023 23.0962 14.0671 23.9055 14.0671 24.7495C14.0671 25.5934 14.4023 26.4027 14.9991 26.9995C15.5958 27.5962 16.4052 27.9314 17.2491 27.9314C18.093 27.9314 18.9023 27.5962 19.4991 26.9995L29.2491 17.2495C30.4425 16.056 31.113 14.4373 31.113 12.7495C31.113 11.0616 30.4425 9.44293 29.2491 8.24946C28.0556 7.05598 26.4369 6.3855 24.7491 6.3855C23.0612 6.3855 21.4425 7.05598 20.2491 8.24946L10.4991 17.9995C8.70886 19.7897 7.70312 22.2177 7.70312 24.7495C7.70313 27.2812 8.70886 29.7093 10.4991 31.4995C12.2893 33.2897 14.7173 34.2954 17.2491 34.2954C19.7808 34.2954 22.2089 33.2897 23.9991 31.4995L33.7491 21.7495" stroke="#DEB308" stroke-linecap="round" stroke-linejoin="round"/>
<path d="M22.4991 10.4995L12.7491 20.2495C12.1523 20.8462 11.8171 21.6555 11.8171 22.4995C11.8171 23.3434 12.1523 24.1527 12.7491 24.7495C13.3458 25.3462 14.1552 25.6814 14.9991 25.6814C15.843 25.6814 16.6523 25.3462 17.2491 24.7495L26.9991 14.9995C28.1925 13.806 28.863 12.1873 28.863 10.4995C28.863 8.81163 28.1925 7.19293 26.9991 5.99946C25.8056 4.80598 24.1869 4.1355 22.4991 4.1355C20.8112 4.1355 19.1925 4.80598 17.9991 5.99946L8.24907 15.7495C6.45886 17.5397 5.45312 19.9677 5.45312 22.4995C5.45313 25.0312 6.45886 27.4592 8.24907 29.2495C10.0393 31.0397 12.4673 32.0454 14.9991 32.0454C17.5308 32.0454 19.9589 31.0397 21.7491 29.2495L31.4991 19.4995" stroke="black" stroke-width="2" stroke-linecap="round" stroke-linejoin="round"/>
</g>
<defs>
<clipPath id="clip0_10_4406">
<rect width="36" height="36" fill="white"/>
</clipPath>
</defs>
</svg>
