<?xml version="1.0" encoding="utf-8"?>
<svg version="1.1" xmlns="http://www.w3.org/2000/svg" xmlns:xlink="http://www.w3.org/1999/xlink" x="0px" y="0px"
	 width="20px" height="20px" viewBox="0 0 20 20" style="enable-background:new 0 0 20 20;" xml:space="preserve" fill="#fff">
<path d="M5.9,0.3c0.1,0,0.2,0.1,0.4,0.1c1.1,0.3,1.9,1.3,1.9,2.5c0,0.7,0,1.3,0,2c0,4.1,0,8.1,0,12.2c0,1.2-0.8,2.3-1.9,2.6
	c-0.1,0-0.3,0.1-0.4,0.1c-0.7,0-1.3,0-1.9,0c-1.2-0.1-2.1-1.2-2.2-2.4c0-0.1,0-0.1,0-0.2c0-4.7,0-9.4,0-14.1c0-1.3,0.8-2.3,2-2.6
	c0.1,0,0.2,0,0.2-0.1C4.6,0.3,5.3,0.3,5.9,0.3z"/>
<path d="M16.3,0.3c0.2,0.1,0.4,0.1,0.6,0.2c1,0.4,1.7,1.3,1.7,2.4c0,1.5,0,3.1,0,4.6c0,3.2,0,6.4,0,9.6c0,1.3-0.8,2.3-2,2.6
	c-0.1,0-0.2,0-0.3,0c-0.6,0-1.3,0.1-1.9,0c-1.3-0.2-2.2-1.2-2.2-2.6c0-0.9,0-1.9,0-2.8c0-3.7,0-7.5,0-11.2c0-1.5,0.8-2.4,2.2-2.7
	c0,0,0,0,0,0C15,0.3,15.6,0.3,16.3,0.3z"/>
</svg>
