<?xml version="1.0" encoding="utf-8"?>
<svg version="1.1" id="Warstwa_1" xmlns="http://www.w3.org/2000/svg" xmlns:xlink="http://www.w3.org/1999/xlink" x="0px" y="0px"
	 width="20px" height="20px" viewBox="0 0 20 20" style="enable-background:new 0 0 20 20;" xml:space="preserve" fill="#fff">
<path d="M3.4,0.3c0.2,0,0.3,0,0.5,0c0.4,0.1,0.9,0.2,1.3,0.5c4.3,2.5,8.6,4.9,12.9,7.4c0.3,0.2,0.6,0.4,0.9,0.6
	c0.7,0.7,0.7,1.6,0.1,2.3c-0.3,0.3-0.6,0.6-1,0.8c-4.3,2.5-8.6,4.9-12.9,7.4c-0.3,0.2-0.6,0.3-1,0.4c-0.9,0.3-1.7-0.2-2.1-1.1
	c-0.2-0.4-0.2-0.8-0.2-1.3c0-4.9,0-9.7,0-14.6c0-0.2,0-0.4,0-0.6c0.1-0.5,0.2-1,0.6-1.4C2.7,0.5,3,0.3,3.4,0.3z"/>
</svg>
