<svg width="32" height="27" viewBox="0 0 32 27" fill="none" xmlns="http://www.w3.org/2000/svg">
<path d="M13.2038 5.67529C13.9896 5.3702 14.3191 4.50187 13.9642 3.79781L12.7223 1.38056C12.3674 0.700208 11.5057 0.394883 10.7453 0.700208C8.59087 1.54507 6.74061 2.64809 5.27055 3.9858C3.47098 5.55795 2.25438 7.36502 1.59538 9.35985C0.936386 11.3784 0.581543 14.1239 0.581543 17.6208V24.8256C0.581543 25.6 1.26588 26.2337 2.1023 26.2337H12.0633C12.8997 26.2337 13.584 25.6 13.584 24.8256V15.6025C13.584 14.8278 12.8997 14.1944 12.0633 14.1944H7.29822C7.34891 11.8238 7.95722 9.92309 9.07244 8.49128C9.98489 7.34179 11.3536 6.40305 13.2038 5.67529Z" fill="#DEB308"/>
<path d="M31.0974 5.67546C31.8832 5.37037 32.2124 4.50204 31.8578 3.79798L30.6159 1.40443C30.261 0.723845 29.3993 0.418755 28.6389 0.723845C26.5098 1.56871 24.6847 2.67173 23.1895 3.98596C21.3897 5.58182 20.148 7.3889 19.4887 9.38372C18.8297 11.3548 18.5005 14.1009 18.5005 17.6212V24.826C18.5005 25.6004 19.1848 26.2341 20.0212 26.2341H29.9822C30.8186 26.2341 31.503 25.6004 31.503 24.826V15.6029C31.503 14.8282 30.8186 14.1948 29.9822 14.1948H25.1918C25.2425 11.8242 25.8511 9.92349 26.966 8.49168C27.8785 7.34196 29.2472 6.40322 31.0974 5.67546Z" fill="#DEB308"/>
<path d="M12.2603 4.16137L12.2603 4.16136L12.2563 4.16296C10.2949 4.93443 8.76009 5.96199 7.70766 7.28782L7.70763 7.28779L7.70197 7.29506C6.4236 8.93633 5.771 11.0617 5.71691 13.5912L5.69507 14.6126H6.71668H11.4817C11.8398 14.6126 12.0025 14.8695 12.0025 15.0207V24.2438C12.0025 24.3949 11.8397 24.652 11.4817 24.652H1.52076C1.16276 24.652 1 24.3949 1 24.2438V17.039C1 13.5978 1.35071 10.9694 1.9639 9.09018C2.56176 7.28143 3.66976 5.62237 5.34692 4.15715L5.35454 4.15049L5.36203 4.14368C6.72641 2.90215 8.46647 1.85821 10.5288 1.04945L10.5288 1.04948L10.5364 1.04646C10.8523 0.919584 11.1514 1.06716 11.2531 1.25945L12.4908 3.66838C12.5685 3.82578 12.5151 4.06245 12.2603 4.16137Z" stroke="black" stroke-width="2"/>
<path d="M30.1539 4.16183L30.1539 4.16182L30.1499 4.16342C28.1885 4.93489 26.6537 5.96247 25.6012 7.2886L25.6012 7.28857L25.5955 7.29584C24.3175 8.93702 23.6646 11.0623 23.6105 13.5919L23.5887 14.6133H24.6103H29.4007C29.7588 14.6133 29.9214 14.8702 29.9214 15.0214V24.2445C29.9214 24.3956 29.7587 24.6527 29.4007 24.6527H19.4397C19.0817 24.6527 18.9189 24.3956 18.9189 24.2445V17.0397C18.9189 13.5633 19.2464 10.9415 19.8556 9.11936L19.8567 9.11607C20.4524 7.31333 21.5826 5.65061 23.2698 4.15417C24.6696 2.9241 26.393 1.87872 28.4262 1.0719L28.4262 1.07191L28.4297 1.07049C28.7467 0.943289 29.0464 1.09196 29.1473 1.28481C29.1474 1.28498 29.1475 1.28514 29.1476 1.28531L30.3849 3.66987C30.4618 3.82768 30.4077 4.0633 30.1539 4.16183Z" stroke="black" stroke-width="2"/>
</svg>
